<svg id="visual" viewBox="0 0 900 600" width="900" height="600" xmlns="http://www.w3.org/2000/svg" xmlns:xlink="http://www.w3.org/1999/xlink" version="1.1"><rect x="0" y="0" width="900" height="600" fill="#FFFFFF"></rect><defs><linearGradient id="grad1_0" x1="33.3%" y1="0%" x2="100%" y2="100%"><stop offset="20%" stop-color="#ffffff" stop-opacity="1"></stop><stop offset="80%" stop-color="#ffffff" stop-opacity="1"></stop></linearGradient></defs><defs><linearGradient id="grad2_0" x1="0%" y1="0%" x2="66.7%" y2="100%"><stop offset="20%" stop-color="#ffffff" stop-opacity="1"></stop><stop offset="80%" stop-color="#ffffff" stop-opacity="1"></stop></linearGradient></defs><g transform="translate(900, 0)"><path d="M0 459.7C-66.6 460.6 -133.3 461.6 -175.9 424.7C-218.6 387.9 -237.3 313.2 -263 263C-288.8 212.9 -321.7 187.1 -355.7 147.3C-389.7 107.6 -424.7 53.8 -459.7 0L0 0Z" fill="#001122"></path></g><g transform="translate(0, 600)"><path d="M0 -459.7C62 -456.2 124 -452.6 175.9 -424.7C227.9 -396.8 269.7 -344.5 293.4 -293.4C317.2 -242.4 322.7 -192.6 347.4 -143.9C372.1 -95.2 415.9 -47.6 459.7 0L0 0Z" fill="#001122"></path></g></svg>